<mxfile host="65bd71144e">
    <diagram id="JfJb5kqrtGAqs19RAUIm" name="Page-1">
        <mxGraphModel dx="1916" dy="1284" grid="1" gridSize="10" guides="1" tooltips="1" connect="1" arrows="1" fold="1" page="1" pageScale="1" pageWidth="850" pageHeight="1100" math="0" shadow="0">
            <root>
                <mxCell id="0"/>
                <mxCell id="1" parent="0"/>
                <mxCell id="3" value="Pflanze" style="swimlane;fontStyle=0;align=center;verticalAlign=top;childLayout=stackLayout;horizontal=1;startSize=55;horizontalStack=0;resizeParent=1;resizeParentMax=0;resizeLast=0;collapsible=0;marginBottom=0;html=1;" vertex="1" parent="1">
                    <mxGeometry x="400" y="120" width="140" height="163" as="geometry"/>
                </mxCell>
                <mxCell id="4" value="attributes" style="text;html=1;strokeColor=none;fillColor=none;align=center;verticalAlign=middle;spacingLeft=4;spacingRight=4;overflow=hidden;rotatable=0;points=[[0,0.5],[1,0.5]];portConstraint=eastwest;" vertex="1" parent="3">
                    <mxGeometry y="55" width="140" height="20" as="geometry"/>
                </mxCell>
                <mxCell id="5" value="size" style="text;html=1;strokeColor=none;fillColor=none;align=left;verticalAlign=middle;spacingLeft=4;spacingRight=4;overflow=hidden;rotatable=0;points=[[0,0.5],[1,0.5]];portConstraint=eastwest;" vertex="1" parent="3">
                    <mxGeometry y="75" width="140" height="20" as="geometry"/>
                </mxCell>
                <mxCell id="7" value="..." style="text;html=1;strokeColor=none;fillColor=none;align=left;verticalAlign=middle;spacingLeft=4;spacingRight=4;overflow=hidden;rotatable=0;points=[[0,0.5],[1,0.5]];portConstraint=eastwest;" vertex="1" parent="3">
                    <mxGeometry y="95" width="140" height="20" as="geometry"/>
                </mxCell>
                <mxCell id="8" value="" style="line;strokeWidth=1;fillColor=none;align=left;verticalAlign=middle;spacingTop=-1;spacingLeft=3;spacingRight=3;rotatable=0;labelPosition=right;points=[];portConstraint=eastwest;" vertex="1" parent="3">
                    <mxGeometry y="115" width="140" height="8" as="geometry"/>
                </mxCell>
                <mxCell id="9" value="operations" style="text;html=1;strokeColor=none;fillColor=none;align=center;verticalAlign=middle;spacingLeft=4;spacingRight=4;overflow=hidden;rotatable=0;points=[[0,0.5],[1,0.5]];portConstraint=eastwest;" vertex="1" parent="3">
                    <mxGeometry y="123" width="140" height="20" as="geometry"/>
                </mxCell>
                <mxCell id="10" value="grow()" style="text;html=1;strokeColor=none;fillColor=none;align=left;verticalAlign=middle;spacingLeft=4;spacingRight=4;overflow=hidden;rotatable=0;points=[[0,0.5],[1,0.5]];portConstraint=eastwest;" vertex="1" parent="3">
                    <mxGeometry y="143" width="140" height="20" as="geometry"/>
                </mxCell>
                <mxCell id="26" value="Baum" style="swimlane;fontStyle=0;align=center;verticalAlign=top;childLayout=stackLayout;horizontal=1;startSize=55;horizontalStack=0;resizeParent=1;resizeParentMax=0;resizeLast=0;collapsible=0;marginBottom=0;html=1;" vertex="1" parent="1">
                    <mxGeometry x="220" y="320" width="140" height="203" as="geometry"/>
                </mxCell>
                <mxCell id="27" value="attributes" style="text;html=1;strokeColor=none;fillColor=none;align=center;verticalAlign=middle;spacingLeft=4;spacingRight=4;overflow=hidden;rotatable=0;points=[[0,0.5],[1,0.5]];portConstraint=eastwest;" vertex="1" parent="26">
                    <mxGeometry y="55" width="140" height="20" as="geometry"/>
                </mxCell>
                <mxCell id="28" value="rings" style="text;html=1;strokeColor=none;fillColor=none;align=left;verticalAlign=middle;spacingLeft=4;spacingRight=4;overflow=hidden;rotatable=0;points=[[0,0.5],[1,0.5]];portConstraint=eastwest;" vertex="1" parent="26">
                    <mxGeometry y="75" width="140" height="20" as="geometry"/>
                </mxCell>
                <mxCell id="29" value="inherited size" style="text;html=1;strokeColor=none;fillColor=none;align=left;verticalAlign=middle;spacingLeft=4;spacingRight=4;overflow=hidden;rotatable=0;points=[[0,0.5],[1,0.5]];portConstraint=eastwest;fontColor=#808080;" vertex="1" parent="26">
                    <mxGeometry y="95" width="140" height="20" as="geometry"/>
                </mxCell>
                <mxCell id="30" value="..." style="text;html=1;strokeColor=none;fillColor=none;align=left;verticalAlign=middle;spacingLeft=4;spacingRight=4;overflow=hidden;rotatable=0;points=[[0,0.5],[1,0.5]];portConstraint=eastwest;" vertex="1" parent="26">
                    <mxGeometry y="115" width="140" height="20" as="geometry"/>
                </mxCell>
                <mxCell id="31" value="" style="line;strokeWidth=1;fillColor=none;align=left;verticalAlign=middle;spacingTop=-1;spacingLeft=3;spacingRight=3;rotatable=0;labelPosition=right;points=[];portConstraint=eastwest;" vertex="1" parent="26">
                    <mxGeometry y="135" width="140" height="8" as="geometry"/>
                </mxCell>
                <mxCell id="32" value="operations" style="text;html=1;strokeColor=none;fillColor=none;align=center;verticalAlign=middle;spacingLeft=4;spacingRight=4;overflow=hidden;rotatable=0;points=[[0,0.5],[1,0.5]];portConstraint=eastwest;" vertex="1" parent="26">
                    <mxGeometry y="143" width="140" height="20" as="geometry"/>
                </mxCell>
                <mxCell id="33" value="dirveOut()" style="text;html=1;strokeColor=none;fillColor=none;align=left;verticalAlign=middle;spacingLeft=4;spacingRight=4;overflow=hidden;rotatable=0;points=[[0,0.5],[1,0.5]];portConstraint=eastwest;" vertex="1" parent="26">
                    <mxGeometry y="163" width="140" height="20" as="geometry"/>
                </mxCell>
                <mxCell id="34" value="&lt;span style=&quot;color: rgb(128, 128, 128);&quot;&gt;inherited grow()&lt;/span&gt;" style="text;html=1;strokeColor=none;fillColor=none;align=left;verticalAlign=middle;spacingLeft=4;spacingRight=4;overflow=hidden;rotatable=0;points=[[0,0.5],[1,0.5]];portConstraint=eastwest;" vertex="1" parent="26">
                    <mxGeometry y="183" width="140" height="20" as="geometry"/>
                </mxCell>
                <mxCell id="35" value="" style="endArrow=open;startArrow=none;endFill=0;startFill=0;endSize=8;html=1;verticalAlign=bottom;labelBackgroundColor=none;strokeWidth=1;edgeStyle=orthogonalEdgeStyle;entryX=0;entryY=0.5;entryDx=0;entryDy=0;exitX=0.5;exitY=0;exitDx=0;exitDy=0;rounded=0;" edge="1" parent="1" source="26" target="5">
                    <mxGeometry width="160" relative="1" as="geometry">
                        <mxPoint x="190" y="420" as="sourcePoint"/>
                        <mxPoint x="290" y="390" as="targetPoint"/>
                    </mxGeometry>
                </mxCell>
                <mxCell id="36" value="Laubbaum" style="swimlane;fontStyle=0;align=center;verticalAlign=top;childLayout=stackLayout;horizontal=1;startSize=55;horizontalStack=0;resizeParent=1;resizeParentMax=0;resizeLast=0;collapsible=0;marginBottom=0;html=1;" vertex="1" parent="1">
                    <mxGeometry x="-40" y="560" width="140" height="243" as="geometry"/>
                </mxCell>
                <mxCell id="37" value="attributes" style="text;html=1;strokeColor=none;fillColor=none;align=center;verticalAlign=middle;spacingLeft=4;spacingRight=4;overflow=hidden;rotatable=0;points=[[0,0.5],[1,0.5]];portConstraint=eastwest;" vertex="1" parent="36">
                    <mxGeometry y="55" width="140" height="20" as="geometry"/>
                </mxCell>
                <mxCell id="38" value="expDate" style="text;html=1;strokeColor=none;fillColor=none;align=left;verticalAlign=middle;spacingLeft=4;spacingRight=4;overflow=hidden;rotatable=0;points=[[0,0.5],[1,0.5]];portConstraint=eastwest;" vertex="1" parent="36">
                    <mxGeometry y="75" width="140" height="20" as="geometry"/>
                </mxCell>
                <mxCell id="39" value="inherited rings" style="text;html=1;strokeColor=none;fillColor=none;align=left;verticalAlign=middle;spacingLeft=4;spacingRight=4;overflow=hidden;rotatable=0;points=[[0,0.5],[1,0.5]];portConstraint=eastwest;fontColor=#808080;" vertex="1" parent="36">
                    <mxGeometry y="95" width="140" height="20" as="geometry"/>
                </mxCell>
                <mxCell id="45" value="inherited size" style="text;html=1;strokeColor=none;fillColor=none;align=left;verticalAlign=middle;spacingLeft=4;spacingRight=4;overflow=hidden;rotatable=0;points=[[0,0.5],[1,0.5]];portConstraint=eastwest;fontColor=#808080;" vertex="1" parent="36">
                    <mxGeometry y="115" width="140" height="20" as="geometry"/>
                </mxCell>
                <mxCell id="40" value="..." style="text;html=1;strokeColor=none;fillColor=none;align=left;verticalAlign=middle;spacingLeft=4;spacingRight=4;overflow=hidden;rotatable=0;points=[[0,0.5],[1,0.5]];portConstraint=eastwest;" vertex="1" parent="36">
                    <mxGeometry y="135" width="140" height="20" as="geometry"/>
                </mxCell>
                <mxCell id="41" value="" style="line;strokeWidth=1;fillColor=none;align=left;verticalAlign=middle;spacingTop=-1;spacingLeft=3;spacingRight=3;rotatable=0;labelPosition=right;points=[];portConstraint=eastwest;" vertex="1" parent="36">
                    <mxGeometry y="155" width="140" height="8" as="geometry"/>
                </mxCell>
                <mxCell id="42" value="operations" style="text;html=1;strokeColor=none;fillColor=none;align=center;verticalAlign=middle;spacingLeft=4;spacingRight=4;overflow=hidden;rotatable=0;points=[[0,0.5],[1,0.5]];portConstraint=eastwest;" vertex="1" parent="36">
                    <mxGeometry y="163" width="140" height="20" as="geometry"/>
                </mxCell>
                <mxCell id="43" value="lauben()" style="text;html=1;strokeColor=none;fillColor=none;align=left;verticalAlign=middle;spacingLeft=4;spacingRight=4;overflow=hidden;rotatable=0;points=[[0,0.5],[1,0.5]];portConstraint=eastwest;" vertex="1" parent="36">
                    <mxGeometry y="183" width="140" height="20" as="geometry"/>
                </mxCell>
                <mxCell id="44" value="&lt;span style=&quot;color: rgb(128, 128, 128);&quot;&gt;inherited driveOut()&lt;/span&gt;" style="text;html=1;strokeColor=none;fillColor=none;align=left;verticalAlign=middle;spacingLeft=4;spacingRight=4;overflow=hidden;rotatable=0;points=[[0,0.5],[1,0.5]];portConstraint=eastwest;" vertex="1" parent="36">
                    <mxGeometry y="203" width="140" height="20" as="geometry"/>
                </mxCell>
                <mxCell id="46" value="&lt;span style=&quot;color: rgb(128, 128, 128);&quot;&gt;inherited grow()&lt;/span&gt;" style="text;html=1;strokeColor=none;fillColor=none;align=left;verticalAlign=middle;spacingLeft=4;spacingRight=4;overflow=hidden;rotatable=0;points=[[0,0.5],[1,0.5]];portConstraint=eastwest;" vertex="1" parent="36">
                    <mxGeometry y="223" width="140" height="20" as="geometry"/>
                </mxCell>
                <mxCell id="47" value="" style="endArrow=open;startArrow=none;endFill=0;startFill=0;endSize=8;html=1;verticalAlign=bottom;labelBackgroundColor=none;strokeWidth=1;rounded=0;edgeStyle=orthogonalEdgeStyle;exitX=0.5;exitY=0;exitDx=0;exitDy=0;entryX=0;entryY=0.5;entryDx=0;entryDy=0;" edge="1" parent="1" source="36" target="29">
                    <mxGeometry width="160" relative="1" as="geometry">
                        <mxPoint x="460" y="510" as="sourcePoint"/>
                        <mxPoint x="620" y="510" as="targetPoint"/>
                    </mxGeometry>
                </mxCell>
                <mxCell id="48" value="Buche" style="swimlane;fontStyle=0;align=center;verticalAlign=top;childLayout=stackLayout;horizontal=1;startSize=55;horizontalStack=0;resizeParent=1;resizeParentMax=0;resizeLast=0;collapsible=0;marginBottom=0;html=1;" vertex="1" parent="1">
                    <mxGeometry x="-220" y="840" width="140" height="303" as="geometry"/>
                </mxCell>
                <mxCell id="49" value="attributes" style="text;html=1;strokeColor=none;fillColor=none;align=center;verticalAlign=middle;spacingLeft=4;spacingRight=4;overflow=hidden;rotatable=0;points=[[0,0.5],[1,0.5]];portConstraint=eastwest;" vertex="1" parent="48">
                    <mxGeometry y="55" width="140" height="20" as="geometry"/>
                </mxCell>
                <mxCell id="50" value="oilAmount" style="text;html=1;strokeColor=none;fillColor=none;align=left;verticalAlign=middle;spacingLeft=4;spacingRight=4;overflow=hidden;rotatable=0;points=[[0,0.5],[1,0.5]];portConstraint=eastwest;" vertex="1" parent="48">
                    <mxGeometry y="75" width="140" height="20" as="geometry"/>
                </mxCell>
                <mxCell id="60" value="color" style="text;html=1;strokeColor=none;fillColor=none;align=left;verticalAlign=middle;spacingLeft=4;spacingRight=4;overflow=hidden;rotatable=0;points=[[0,0.5],[1,0.5]];portConstraint=eastwest;" vertex="1" parent="48">
                    <mxGeometry y="95" width="140" height="20" as="geometry"/>
                </mxCell>
                <mxCell id="59" value="&lt;span style=&quot;color: rgb(128, 128, 128);&quot;&gt;inherited expDate&lt;/span&gt;" style="text;html=1;strokeColor=none;fillColor=none;align=left;verticalAlign=middle;spacingLeft=4;spacingRight=4;overflow=hidden;rotatable=0;points=[[0,0.5],[1,0.5]];portConstraint=eastwest;" vertex="1" parent="48">
                    <mxGeometry y="115" width="140" height="20" as="geometry"/>
                </mxCell>
                <mxCell id="51" value="inherited rings" style="text;html=1;strokeColor=none;fillColor=none;align=left;verticalAlign=middle;spacingLeft=4;spacingRight=4;overflow=hidden;rotatable=0;points=[[0,0.5],[1,0.5]];portConstraint=eastwest;fontColor=#808080;" vertex="1" parent="48">
                    <mxGeometry y="135" width="140" height="20" as="geometry"/>
                </mxCell>
                <mxCell id="52" value="inherited size" style="text;html=1;strokeColor=none;fillColor=none;align=left;verticalAlign=middle;spacingLeft=4;spacingRight=4;overflow=hidden;rotatable=0;points=[[0,0.5],[1,0.5]];portConstraint=eastwest;fontColor=#808080;" vertex="1" parent="48">
                    <mxGeometry y="155" width="140" height="20" as="geometry"/>
                </mxCell>
                <mxCell id="53" value="..." style="text;html=1;strokeColor=none;fillColor=none;align=left;verticalAlign=middle;spacingLeft=4;spacingRight=4;overflow=hidden;rotatable=0;points=[[0,0.5],[1,0.5]];portConstraint=eastwest;" vertex="1" parent="48">
                    <mxGeometry y="175" width="140" height="20" as="geometry"/>
                </mxCell>
                <mxCell id="54" value="" style="line;strokeWidth=1;fillColor=none;align=left;verticalAlign=middle;spacingTop=-1;spacingLeft=3;spacingRight=3;rotatable=0;labelPosition=right;points=[];portConstraint=eastwest;" vertex="1" parent="48">
                    <mxGeometry y="195" width="140" height="8" as="geometry"/>
                </mxCell>
                <mxCell id="55" value="operations" style="text;html=1;strokeColor=none;fillColor=none;align=center;verticalAlign=middle;spacingLeft=4;spacingRight=4;overflow=hidden;rotatable=0;points=[[0,0.5],[1,0.5]];portConstraint=eastwest;" vertex="1" parent="48">
                    <mxGeometry y="203" width="140" height="20" as="geometry"/>
                </mxCell>
                <mxCell id="56" value="buchenNüsseWachsen()" style="text;html=1;strokeColor=none;fillColor=none;align=left;verticalAlign=middle;spacingLeft=4;spacingRight=4;overflow=hidden;rotatable=0;points=[[0,0.5],[1,0.5]];portConstraint=eastwest;" vertex="1" parent="48">
                    <mxGeometry y="223" width="140" height="20" as="geometry"/>
                </mxCell>
                <mxCell id="61" value="&lt;span style=&quot;color: rgb(128, 128, 128);&quot;&gt;inherited lauben()&lt;/span&gt;" style="text;html=1;strokeColor=none;fillColor=none;align=left;verticalAlign=middle;spacingLeft=4;spacingRight=4;overflow=hidden;rotatable=0;points=[[0,0.5],[1,0.5]];portConstraint=eastwest;" vertex="1" parent="48">
                    <mxGeometry y="243" width="140" height="20" as="geometry"/>
                </mxCell>
                <mxCell id="57" value="&lt;span style=&quot;color: rgb(128, 128, 128);&quot;&gt;inherited driveOut()&lt;/span&gt;" style="text;html=1;strokeColor=none;fillColor=none;align=left;verticalAlign=middle;spacingLeft=4;spacingRight=4;overflow=hidden;rotatable=0;points=[[0,0.5],[1,0.5]];portConstraint=eastwest;" vertex="1" parent="48">
                    <mxGeometry y="263" width="140" height="20" as="geometry"/>
                </mxCell>
                <mxCell id="58" value="&lt;span style=&quot;color: rgb(128, 128, 128);&quot;&gt;inherited grow()&lt;/span&gt;" style="text;html=1;strokeColor=none;fillColor=none;align=left;verticalAlign=middle;spacingLeft=4;spacingRight=4;overflow=hidden;rotatable=0;points=[[0,0.5],[1,0.5]];portConstraint=eastwest;" vertex="1" parent="48">
                    <mxGeometry y="283" width="140" height="20" as="geometry"/>
                </mxCell>
                <mxCell id="64" value="" style="endArrow=open;startArrow=none;endFill=0;startFill=0;endSize=8;html=1;verticalAlign=bottom;labelBackgroundColor=none;strokeWidth=1;rounded=0;edgeStyle=orthogonalEdgeStyle;exitX=0.5;exitY=0;exitDx=0;exitDy=0;entryX=0;entryY=0.5;entryDx=0;entryDy=0;" edge="1" parent="1" source="48" target="45">
                    <mxGeometry width="160" relative="1" as="geometry">
                        <mxPoint x="-40" y="800" as="sourcePoint"/>
                        <mxPoint x="60" y="793" as="targetPoint"/>
                    </mxGeometry>
                </mxCell>
                <mxCell id="65" value="Ahorn" style="swimlane;fontStyle=0;align=center;verticalAlign=top;childLayout=stackLayout;horizontal=1;startSize=55;horizontalStack=0;resizeParent=1;resizeParentMax=0;resizeLast=0;collapsible=0;marginBottom=0;html=1;" vertex="1" parent="1">
                    <mxGeometry x="140" y="840" width="140" height="243" as="geometry"/>
                </mxCell>
                <mxCell id="66" value="attributes" style="text;html=1;strokeColor=none;fillColor=none;align=center;verticalAlign=middle;spacingLeft=4;spacingRight=4;overflow=hidden;rotatable=0;points=[[0,0.5],[1,0.5]];portConstraint=eastwest;" vertex="1" parent="65">
                    <mxGeometry y="55" width="140" height="20" as="geometry"/>
                </mxCell>
                <mxCell id="69" value="&lt;span style=&quot;color: rgb(128, 128, 128);&quot;&gt;inherited expDate&lt;/span&gt;" style="text;html=1;strokeColor=none;fillColor=none;align=left;verticalAlign=middle;spacingLeft=4;spacingRight=4;overflow=hidden;rotatable=0;points=[[0,0.5],[1,0.5]];portConstraint=eastwest;" vertex="1" parent="65">
                    <mxGeometry y="75" width="140" height="20" as="geometry"/>
                </mxCell>
                <mxCell id="70" value="inherited rings" style="text;html=1;strokeColor=none;fillColor=none;align=left;verticalAlign=middle;spacingLeft=4;spacingRight=4;overflow=hidden;rotatable=0;points=[[0,0.5],[1,0.5]];portConstraint=eastwest;fontColor=#808080;" vertex="1" parent="65">
                    <mxGeometry y="95" width="140" height="20" as="geometry"/>
                </mxCell>
                <mxCell id="71" value="inherited size" style="text;html=1;strokeColor=none;fillColor=none;align=left;verticalAlign=middle;spacingLeft=4;spacingRight=4;overflow=hidden;rotatable=0;points=[[0,0.5],[1,0.5]];portConstraint=eastwest;fontColor=#808080;" vertex="1" parent="65">
                    <mxGeometry y="115" width="140" height="20" as="geometry"/>
                </mxCell>
                <mxCell id="72" value="..." style="text;html=1;strokeColor=none;fillColor=none;align=left;verticalAlign=middle;spacingLeft=4;spacingRight=4;overflow=hidden;rotatable=0;points=[[0,0.5],[1,0.5]];portConstraint=eastwest;" vertex="1" parent="65">
                    <mxGeometry y="135" width="140" height="20" as="geometry"/>
                </mxCell>
                <mxCell id="73" value="" style="line;strokeWidth=1;fillColor=none;align=left;verticalAlign=middle;spacingTop=-1;spacingLeft=3;spacingRight=3;rotatable=0;labelPosition=right;points=[];portConstraint=eastwest;" vertex="1" parent="65">
                    <mxGeometry y="155" width="140" height="8" as="geometry"/>
                </mxCell>
                <mxCell id="74" value="operations" style="text;html=1;strokeColor=none;fillColor=none;align=center;verticalAlign=middle;spacingLeft=4;spacingRight=4;overflow=hidden;rotatable=0;points=[[0,0.5],[1,0.5]];portConstraint=eastwest;" vertex="1" parent="65">
                    <mxGeometry y="163" width="140" height="20" as="geometry"/>
                </mxCell>
                <mxCell id="76" value="&lt;span style=&quot;color: rgb(128, 128, 128);&quot;&gt;inherited lauben()&lt;/span&gt;" style="text;html=1;strokeColor=none;fillColor=none;align=left;verticalAlign=middle;spacingLeft=4;spacingRight=4;overflow=hidden;rotatable=0;points=[[0,0.5],[1,0.5]];portConstraint=eastwest;" vertex="1" parent="65">
                    <mxGeometry y="183" width="140" height="20" as="geometry"/>
                </mxCell>
                <mxCell id="77" value="&lt;span style=&quot;color: rgb(128, 128, 128);&quot;&gt;inherited driveOut()&lt;/span&gt;" style="text;html=1;strokeColor=none;fillColor=none;align=left;verticalAlign=middle;spacingLeft=4;spacingRight=4;overflow=hidden;rotatable=0;points=[[0,0.5],[1,0.5]];portConstraint=eastwest;" vertex="1" parent="65">
                    <mxGeometry y="203" width="140" height="20" as="geometry"/>
                </mxCell>
                <mxCell id="78" value="&lt;span style=&quot;color: rgb(128, 128, 128);&quot;&gt;inherited grow()&lt;/span&gt;" style="text;html=1;strokeColor=none;fillColor=none;align=left;verticalAlign=middle;spacingLeft=4;spacingRight=4;overflow=hidden;rotatable=0;points=[[0,0.5],[1,0.5]];portConstraint=eastwest;" vertex="1" parent="65">
                    <mxGeometry y="223" width="140" height="20" as="geometry"/>
                </mxCell>
                <mxCell id="91" value="" style="endArrow=open;startArrow=none;endFill=0;startFill=0;endSize=8;html=1;verticalAlign=bottom;labelBackgroundColor=none;strokeWidth=1;rounded=0;edgeStyle=orthogonalEdgeStyle;exitX=0.5;exitY=0;exitDx=0;exitDy=0;entryX=1;entryY=0.5;entryDx=0;entryDy=0;" edge="1" parent="1" source="65" target="45">
                    <mxGeometry width="160" relative="1" as="geometry">
                        <mxPoint x="120" y="870" as="sourcePoint"/>
                        <mxPoint x="130" y="810" as="targetPoint"/>
                    </mxGeometry>
                </mxCell>
                <mxCell id="95" value="Nadelbaum" style="swimlane;fontStyle=0;align=center;verticalAlign=top;childLayout=stackLayout;horizontal=1;startSize=55;horizontalStack=0;resizeParent=1;resizeParentMax=0;resizeLast=0;collapsible=0;marginBottom=0;html=1;" vertex="1" parent="1">
                    <mxGeometry x="480" y="560" width="140" height="263" as="geometry"/>
                </mxCell>
                <mxCell id="96" value="attributes" style="text;html=1;strokeColor=none;fillColor=none;align=center;verticalAlign=middle;spacingLeft=4;spacingRight=4;overflow=hidden;rotatable=0;points=[[0,0.5],[1,0.5]];portConstraint=eastwest;" vertex="1" parent="95">
                    <mxGeometry y="55" width="140" height="20" as="geometry"/>
                </mxCell>
                <mxCell id="97" value="anzahlZapfen" style="text;html=1;strokeColor=none;fillColor=none;align=left;verticalAlign=middle;spacingLeft=4;spacingRight=4;overflow=hidden;rotatable=0;points=[[0,0.5],[1,0.5]];portConstraint=eastwest;" vertex="1" parent="95">
                    <mxGeometry y="75" width="140" height="20" as="geometry"/>
                </mxCell>
                <mxCell id="106" value="harzfluss" style="text;html=1;strokeColor=none;fillColor=none;align=left;verticalAlign=middle;spacingLeft=4;spacingRight=4;overflow=hidden;rotatable=0;points=[[0,0.5],[1,0.5]];portConstraint=eastwest;" vertex="1" parent="95">
                    <mxGeometry y="95" width="140" height="20" as="geometry"/>
                </mxCell>
                <mxCell id="98" value="inherited rings" style="text;html=1;strokeColor=none;fillColor=none;align=left;verticalAlign=middle;spacingLeft=4;spacingRight=4;overflow=hidden;rotatable=0;points=[[0,0.5],[1,0.5]];portConstraint=eastwest;fontColor=#808080;" vertex="1" parent="95">
                    <mxGeometry y="115" width="140" height="20" as="geometry"/>
                </mxCell>
                <mxCell id="99" value="inherited size" style="text;html=1;strokeColor=none;fillColor=none;align=left;verticalAlign=middle;spacingLeft=4;spacingRight=4;overflow=hidden;rotatable=0;points=[[0,0.5],[1,0.5]];portConstraint=eastwest;fontColor=#808080;" vertex="1" parent="95">
                    <mxGeometry y="135" width="140" height="20" as="geometry"/>
                </mxCell>
                <mxCell id="100" value="..." style="text;html=1;strokeColor=none;fillColor=none;align=left;verticalAlign=middle;spacingLeft=4;spacingRight=4;overflow=hidden;rotatable=0;points=[[0,0.5],[1,0.5]];portConstraint=eastwest;" vertex="1" parent="95">
                    <mxGeometry y="155" width="140" height="20" as="geometry"/>
                </mxCell>
                <mxCell id="101" value="" style="line;strokeWidth=1;fillColor=none;align=left;verticalAlign=middle;spacingTop=-1;spacingLeft=3;spacingRight=3;rotatable=0;labelPosition=right;points=[];portConstraint=eastwest;" vertex="1" parent="95">
                    <mxGeometry y="175" width="140" height="8" as="geometry"/>
                </mxCell>
                <mxCell id="102" value="operations" style="text;html=1;strokeColor=none;fillColor=none;align=center;verticalAlign=middle;spacingLeft=4;spacingRight=4;overflow=hidden;rotatable=0;points=[[0,0.5],[1,0.5]];portConstraint=eastwest;" vertex="1" parent="95">
                    <mxGeometry y="183" width="140" height="20" as="geometry"/>
                </mxCell>
                <mxCell id="103" value="harzen()" style="text;html=1;strokeColor=none;fillColor=none;align=left;verticalAlign=middle;spacingLeft=4;spacingRight=4;overflow=hidden;rotatable=0;points=[[0,0.5],[1,0.5]];portConstraint=eastwest;" vertex="1" parent="95">
                    <mxGeometry y="203" width="140" height="20" as="geometry"/>
                </mxCell>
                <mxCell id="104" value="&lt;span style=&quot;color: rgb(128, 128, 128);&quot;&gt;inherited driveOut()&lt;/span&gt;" style="text;html=1;strokeColor=none;fillColor=none;align=left;verticalAlign=middle;spacingLeft=4;spacingRight=4;overflow=hidden;rotatable=0;points=[[0,0.5],[1,0.5]];portConstraint=eastwest;" vertex="1" parent="95">
                    <mxGeometry y="223" width="140" height="20" as="geometry"/>
                </mxCell>
                <mxCell id="105" value="&lt;span style=&quot;color: rgb(128, 128, 128);&quot;&gt;inherited grow()&lt;/span&gt;" style="text;html=1;strokeColor=none;fillColor=none;align=left;verticalAlign=middle;spacingLeft=4;spacingRight=4;overflow=hidden;rotatable=0;points=[[0,0.5],[1,0.5]];portConstraint=eastwest;" vertex="1" parent="95">
                    <mxGeometry y="243" width="140" height="20" as="geometry"/>
                </mxCell>
                <mxCell id="107" value="" style="endArrow=open;startArrow=none;endFill=0;startFill=0;endSize=8;html=1;verticalAlign=bottom;labelBackgroundColor=none;strokeWidth=1;rounded=0;edgeStyle=orthogonalEdgeStyle;exitX=0.5;exitY=0;exitDx=0;exitDy=0;entryX=1;entryY=0.5;entryDx=0;entryDy=0;" edge="1" parent="1" source="95" target="29">
                    <mxGeometry width="160" relative="1" as="geometry">
                        <mxPoint x="388.94" y="523" as="sourcePoint"/>
                        <mxPoint x="380" y="490" as="targetPoint"/>
                    </mxGeometry>
                </mxCell>
                <mxCell id="108" value="Weisstanne" style="swimlane;fontStyle=0;align=center;verticalAlign=top;childLayout=stackLayout;horizontal=1;startSize=55;horizontalStack=0;resizeParent=1;resizeParentMax=0;resizeLast=0;collapsible=0;marginBottom=0;html=1;" vertex="1" parent="1">
                    <mxGeometry x="660" y="860" width="140" height="263" as="geometry"/>
                </mxCell>
                <mxCell id="109" value="attributes" style="text;html=1;strokeColor=none;fillColor=none;align=center;verticalAlign=middle;spacingLeft=4;spacingRight=4;overflow=hidden;rotatable=0;points=[[0,0.5],[1,0.5]];portConstraint=eastwest;" vertex="1" parent="108">
                    <mxGeometry y="55" width="140" height="20" as="geometry"/>
                </mxCell>
                <mxCell id="110" value="&lt;span style=&quot;color: rgb(128, 128, 128);&quot;&gt;inherited anzahlZapfen&lt;/span&gt;" style="text;html=1;strokeColor=none;fillColor=none;align=left;verticalAlign=middle;spacingLeft=4;spacingRight=4;overflow=hidden;rotatable=0;points=[[0,0.5],[1,0.5]];portConstraint=eastwest;" vertex="1" parent="108">
                    <mxGeometry y="75" width="140" height="20" as="geometry"/>
                </mxCell>
                <mxCell id="111" value="&lt;span style=&quot;color: rgb(128, 128, 128);&quot;&gt;inherited harzfluss&lt;/span&gt;" style="text;html=1;strokeColor=none;fillColor=none;align=left;verticalAlign=middle;spacingLeft=4;spacingRight=4;overflow=hidden;rotatable=0;points=[[0,0.5],[1,0.5]];portConstraint=eastwest;" vertex="1" parent="108">
                    <mxGeometry y="95" width="140" height="20" as="geometry"/>
                </mxCell>
                <mxCell id="112" value="inherited rings" style="text;html=1;strokeColor=none;fillColor=none;align=left;verticalAlign=middle;spacingLeft=4;spacingRight=4;overflow=hidden;rotatable=0;points=[[0,0.5],[1,0.5]];portConstraint=eastwest;fontColor=#808080;" vertex="1" parent="108">
                    <mxGeometry y="115" width="140" height="20" as="geometry"/>
                </mxCell>
                <mxCell id="113" value="inherited size" style="text;html=1;strokeColor=none;fillColor=none;align=left;verticalAlign=middle;spacingLeft=4;spacingRight=4;overflow=hidden;rotatable=0;points=[[0,0.5],[1,0.5]];portConstraint=eastwest;fontColor=#808080;" vertex="1" parent="108">
                    <mxGeometry y="135" width="140" height="20" as="geometry"/>
                </mxCell>
                <mxCell id="114" value="..." style="text;html=1;strokeColor=none;fillColor=none;align=left;verticalAlign=middle;spacingLeft=4;spacingRight=4;overflow=hidden;rotatable=0;points=[[0,0.5],[1,0.5]];portConstraint=eastwest;" vertex="1" parent="108">
                    <mxGeometry y="155" width="140" height="20" as="geometry"/>
                </mxCell>
                <mxCell id="115" value="" style="line;strokeWidth=1;fillColor=none;align=left;verticalAlign=middle;spacingTop=-1;spacingLeft=3;spacingRight=3;rotatable=0;labelPosition=right;points=[];portConstraint=eastwest;" vertex="1" parent="108">
                    <mxGeometry y="175" width="140" height="8" as="geometry"/>
                </mxCell>
                <mxCell id="116" value="operations" style="text;html=1;strokeColor=none;fillColor=none;align=center;verticalAlign=middle;spacingLeft=4;spacingRight=4;overflow=hidden;rotatable=0;points=[[0,0.5],[1,0.5]];portConstraint=eastwest;" vertex="1" parent="108">
                    <mxGeometry y="183" width="140" height="20" as="geometry"/>
                </mxCell>
                <mxCell id="117" value="&lt;span style=&quot;color: rgb(128, 128, 128);&quot;&gt;inherited harzen()&lt;/span&gt;" style="text;html=1;strokeColor=none;fillColor=none;align=left;verticalAlign=middle;spacingLeft=4;spacingRight=4;overflow=hidden;rotatable=0;points=[[0,0.5],[1,0.5]];portConstraint=eastwest;" vertex="1" parent="108">
                    <mxGeometry y="203" width="140" height="20" as="geometry"/>
                </mxCell>
                <mxCell id="118" value="&lt;span style=&quot;color: rgb(128, 128, 128);&quot;&gt;inherited driveOut()&lt;/span&gt;" style="text;html=1;strokeColor=none;fillColor=none;align=left;verticalAlign=middle;spacingLeft=4;spacingRight=4;overflow=hidden;rotatable=0;points=[[0,0.5],[1,0.5]];portConstraint=eastwest;" vertex="1" parent="108">
                    <mxGeometry y="223" width="140" height="20" as="geometry"/>
                </mxCell>
                <mxCell id="119" value="&lt;span style=&quot;color: rgb(128, 128, 128);&quot;&gt;inherited grow()&lt;/span&gt;" style="text;html=1;strokeColor=none;fillColor=none;align=left;verticalAlign=middle;spacingLeft=4;spacingRight=4;overflow=hidden;rotatable=0;points=[[0,0.5],[1,0.5]];portConstraint=eastwest;" vertex="1" parent="108">
                    <mxGeometry y="243" width="140" height="20" as="geometry"/>
                </mxCell>
            </root>
        </mxGraphModel>
    </diagram>
</mxfile>